<?xml version="1.0" encoding="UTF-8"?>
<svg xmlns="http://www.w3.org/2000/svg" viewBox="0 0 500 600" width="500" height="500">
  <!-- Shield outline -->
  <path d="M250,30
           C400,30 470,80 470,80
           C470,200 470,350 250,570
           C30,350 30,200 30,80
           C30,80 100,30 250,30 Z"
        fill="white" stroke="#0c2b5a" stroke-width="25" />
  
  <!-- Large Z -->
  <path d="M280,120
           L400,120
           L220,450
           L340,450"
        fill="none" stroke="#0c2b5a" stroke-width="32" stroke-linecap="round" />
  
  <!-- Balance scale -->
  <path d="M280,120
           L240,170
           L320,170"
        fill="none" stroke="#0c2b5a" stroke-width="14" />
  
  <!-- Scale pan -->
  <path d="M240,195 C240,215 220,235 195,235 C170,235 150,215 150,195 Z"
        fill="#0c2b5a" stroke="none" />
  
  <!-- Flowing lines -->
  <path d="M250,400
           C300,360 340,400 380,360
           C420,320 440,270 440,230"
        fill="none" stroke="#0c2b5a" stroke-width="25" stroke-linejoin="round" />
  
  <path d="M240,450
           C290,410 330,440 370,400
           C410,360 430,310 440,270"
        fill="none" stroke="#0c2b5a" stroke-width="25" stroke-linejoin="round" />
</svg>
