<?xml version="1.0" standalone="no"?>
<!DOCTYPE svg PUBLIC "-//W3C//DTD SVG 20010904//EN"
 "http://www.w3.org/TR/2001/REC-SVG-20010904/DTD/svg10.dtd">
<svg version="1.0" xmlns="http://www.w3.org/2000/svg"
 width="1080.000000pt" height="1080.000000pt" viewBox="0 0 1080.000000 1080.000000"
 preserveAspectRatio="xMidYMid meet">

<g transform="translate(0.000000,1080.000000) scale(0.100000,-0.100000)"
fill="#000000" stroke="none">
<path d="M5324 8232 c-286 -221 -696 -459 -1044 -605 -335 -142 -728 -249
-1080 -297 -47 -6 -105 -15 -130 -18 l-45 -7 -7 -140 c-4 -77 -10 -572 -14
-1099 -5 -852 -4 -977 11 -1120 19 -190 37 -291 76 -442 138 -535 417 -941
884 -1289 122 -91 280 -192 485 -310 411 -236 706 -427 879 -569 39 -32 77
-56 84 -53 7 3 60 40 117 84 215 161 346 246 700 453 391 228 545 331 752 505
443 370 701 821 802 1400 47 271 48 298 47 1130 -1 435 -4 824 -6 865 -3 41
-10 187 -15 324 -4 136 -12 252 -17 257 -4 4 -44 12 -88 18 -507 66 -1003 219
-1465 452 -272 137 -562 319 -757 475 -38 30 -71 54 -74 54 -4 0 -46 -31 -95
-68z m233 -366 c477 -312 932 -518 1468 -665 171 -47 291 -75 410 -96 49 -8
96 -22 104 -30 24 -24 28 -411 7 -580 -79 -613 -320 -1259 -669 -1785 -236
-357 -534 -682 -902 -987 -55 -46 -154 -127 -220 -182 -215 -177 -370 -350
-459 -511 -38 -71 -86 -194 -86 -223 0 -24 -27 -33 -48 -14 -9 8 -156 99 -327
200 -170 102 -319 192 -330 200 -20 15 -20 15 -1 49 30 52 81 116 164 207 241
264 644 551 1217 866 412 227 598 357 800 561 169 170 273 323 382 559 69 152
172 478 153 490 -4 2 -12 -14 -19 -35 -7 -22 -38 -93 -71 -158 -109 -219 -230
-383 -419 -572 -249 -249 -504 -429 -931 -660 -559 -302 -1042 -610 -1301
-827 -54 -46 -101 -83 -104 -83 -26 0 34 178 120 357 148 310 349 600 650 937
129 145 185 204 529 556 496 506 742 782 1007 1130 150 197 339 477 339 502 0
14 -2837 9 -2849 -6 -5 -6 -39 -78 -76 -161 -37 -82 -80 -178 -96 -213 -16
-35 -29 -65 -29 -67 0 -2 -17 -41 -39 -87 -21 -45 -81 -177 -134 -293 -52
-115 -113 -248 -136 -294 -22 -46 -38 -88 -35 -92 3 -5 16 -9 30 -9 20 0 35
16 78 83 55 85 259 447 362 644 32 62 65 113 72 113 6 0 12 -4 12 -8 0 -5 40
-82 88 -173 288 -534 367 -659 416 -659 13 0 25 2 28 5 3 3 -12 38 -33 79 -75
143 -379 818 -379 842 0 14 13 17 165 34 220 25 472 32 1183 37 630 4 742 2
742 -9 0 -14 -150 -221 -233 -323 -233 -284 -499 -582 -777 -870 -648 -672
-1009 -1100 -1242 -1471 -101 -163 -211 -396 -233 -494 -4 -17 -10 -32 -15
-35 -15 -9 -192 199 -275 325 -201 304 -298 590 -336 995 -12 125 -7 2079 5
2107 5 11 25 19 59 23 252 32 683 152 987 275 58 23 128 51 155 62 180 70 579
290 820 451 55 37 105 67 112 67 7 0 70 -38 140 -84z m2033 -2424 c0 -121 -29
-495 -45 -592 -65 -388 -191 -705 -385 -966 -101 -136 -328 -359 -476 -468
-137 -101 -312 -213 -524 -336 -362 -209 -492 -287 -584 -349 -55 -36 -106
-70 -114 -75 -38 -23 25 198 86 299 106 177 175 246 603 595 515 420 943 943
1217 1485 80 158 160 342 187 427 10 32 22 55 26 52 5 -3 9 -35 9 -72z"/>
<path d="M3591 5781 c-22 -14 -8 -92 29 -168 45 -91 161 -206 257 -256 266
-138 614 -55 783 185 49 70 108 218 95 239 -8 12 -1145 12 -1164 0z"/>
</g>
</svg>
